<?xml version="1.0" encoding="UTF-8"?>
<svg version="1.1" xmlns="http://www.w3.org/2000/svg" width="350" height="350">
<path d="M0 0 C115.5 0 231 0 350 0 C350 115.5 350 231 350 350 C234.5 350 119 350 0 350 C0 234.5 0 119 0 0 Z " fill="#FEFEFE" transform="translate(0,0)"/>
<path d="M0 0 C3.93071988 0.58080786 5.8606118 3.14463062 8.4296875 5.94921875 C9.49152471 7.06177445 10.55532527 8.17245967 11.62109375 9.28125 C12.13430176 9.81959473 12.64750977 10.35793945 13.17626953 10.91259766 C15.55829851 13.34951582 18.14301765 15.52419175 20.7421875 17.72265625 C23.58379489 20.24458281 26.1651565 23.01037152 28.7578125 25.78515625 C30.82385574 27.56473131 31.92999112 28.06978032 34.6171875 28.38671875 C36.30092421 27.46826242 36.30092421 27.46826242 37.76171875 25.9140625 C38.34864502 25.35017822 38.93557129 24.78629395 39.5402832 24.20532227 C40.47553833 23.27417603 40.47553833 23.27417603 41.4296875 22.32421875 C42.08477295 21.69894287 42.7398584 21.07366699 43.41479492 20.42944336 C46.87607206 17.11932091 50.25381998 13.74054671 53.5859375 10.30078125 C54.55309692 9.33217163 54.55309692 9.33217163 55.53979492 8.34399414 C56.77201791 7.10858753 57.98206373 5.85053274 59.1652832 4.56811523 C61.74150231 2.01089533 63.41362032 0.47852322 67.11694336 0.19604492 C69.68035232 0.42662613 72.1062397 0.82822292 74.6171875 1.38671875 C75.53371094 1.56589844 76.45023437 1.74507812 77.39453125 1.9296875 C91.62877736 6.17679529 104.5818359 14.57779192 112.18359375 27.5390625 C115.85623176 34.83430257 118.78791105 42.41172861 118.6796875 50.63671875 C118.67066406 51.52875 118.66164063 52.42078125 118.65234375 53.33984375 C118.63494141 54.35304688 118.63494141 54.35304688 118.6171875 55.38671875 C117.8550293 55.43570313 117.09287109 55.4846875 116.30761719 55.53515625 C101.60199041 56.55448861 87.57370233 58.14678119 73.3671875 62.26171875 C71.6670752 62.75285156 71.6670752 62.75285156 69.93261719 63.25390625 C63.10542516 65.34265577 56.90129534 68.01592737 50.6171875 71.38671875 C45.3046875 74.01171875 45.3046875 74.01171875 42.80078125 75.24609375 C40.46474042 76.41225663 40.46474042 76.41225663 37.8671875 78.26171875 C34.6757077 79.85745865 33.06978786 79.2549165 29.6171875 78.38671875 C26.95482454 77.11194631 24.45421886 75.60053833 21.9296875 74.07421875 C15.66305887 70.41670932 9.56392991 67.55410238 2.6171875 65.38671875 C1.11708821 64.86617147 -0.38291499 64.34534716 -1.8828125 63.82421875 C-3.38132078 63.34040718 -4.88134754 62.86127503 -6.3828125 62.38671875 C-7.11886719 62.14050781 -7.85492188 61.89429688 -8.61328125 61.640625 C-22.2311926 57.46215617 -37.2018249 56.25433192 -51.3828125 55.38671875 C-51.80415622 42.11439153 -47.95165184 30.05536396 -39.6328125 19.51171875 C-28.995878 8.39892139 -14.9613657 2.42815607 0 0 Z " fill="#060606" transform="translate(141.3828125,190.61328125)"/>
<path d="M0 0 C6.67498676 5.20974576 6.67498676 5.20974576 9.16015625 8.9375 C9.41894531 11.07543945 9.41894531 11.07543945 9.42578125 13.55078125 C9.4299707 14.46214844 9.43416016 15.37351562 9.43847656 16.3125 C9.42913086 17.281875 9.41978516 18.25125 9.41015625 19.25 C9.40338867 20.24386719 9.39662109 21.23773438 9.38964844 22.26171875 C9.11006972 42.2873571 5.3034124 60.89551894 -8.71875 75.8984375 C-16.75816405 83.62693498 -25.86113455 86.83463111 -36.96484375 87.375 C-45.72674332 87.03854306 -52.33465363 83.00533498 -58.9296875 77.5234375 C-60.95789281 75.78316214 -60.95789281 75.78316214 -63.83984375 73.9375 C-64.83771108 72.27438778 -65.82640812 70.60421823 -66.7421875 68.89453125 C-67.79078759 66.9434076 -67.79078759 66.9434076 -69.03125 65.26171875 C-72.20619438 60.77300428 -73.95200387 56.1396627 -75.58984375 50.9375 C-75.8005249 50.27306885 -76.01120605 49.6086377 -76.22827148 48.92407227 C-78.89719465 40.02729724 -79.12615754 31.10778555 -79.27734375 21.875 C-79.32310547 20.72966797 -79.36886719 19.58433594 -79.41601562 18.40429688 C-79.54128685 8.9871686 -79.54128685 8.9871686 -76.09765625 4.85546875 C-75.04514928 3.84673216 -73.96115075 2.86916038 -72.83984375 1.9375 C-72.07542969 1.26460937 -71.31101563 0.59171875 -70.5234375 -0.1015625 C-49.1261679 -15.20989547 -21.23406653 -15.42171545 0 0 Z " fill="#070707" transform="translate(209.83984375,109.0625)"/>
<path d="M0 0 C4.97619203 0.08105785 8.69717922 2.43895792 12.93359375 4.84375 C14.62551979 5.76966009 16.31824099 6.69411854 18.01171875 7.6171875 C18.85154297 8.07963867 19.69136719 8.54208984 20.55664062 9.01855469 C24.05764888 10.92042347 27.61203673 12.70391251 31.18359375 14.46875 C31.83199219 14.79109619 32.48039062 15.11344238 33.1484375 15.44555664 C35.09668128 16.41360242 37.04618476 17.37906333 38.99609375 18.34375 C43.63433525 20.63873718 48.26498244 22.94738812 52.8828125 25.28320312 C54.36349609 26.02628186 55.84824476 26.76128977 57.3359375 27.49023438 C59.71030027 28.65432634 62.07235747 29.84080064 64.43359375 31.03125 C65.17407959 31.38759521 65.91456543 31.74394043 66.67749023 32.11108398 C71.7776572 34.72177605 71.7776572 34.72177605 72.96875 38.11328125 C72.97777344 38.84933594 72.98679688 39.58539063 72.99609375 40.34375 C72.02269043 40.86485352 71.04928711 41.38595703 70.04638672 41.92285156 C66.73320591 44.04645696 66.73320591 44.04645696 66.22314453 47.45996094 C66.20743408 49.25095215 66.20743408 49.25095215 66.19140625 51.078125 C66.165625 52.37363281 66.13984375 53.66914062 66.11328125 55.00390625 C66.11524705 56.36718857 66.1178594 57.7304701 66.12109375 59.09375 C66.10296252 60.47269443 66.08215845 61.85160647 66.05859375 63.23046875 C66.01143709 66.60216977 65.99165862 69.9717861 65.99609375 73.34375 C66.98609375 73.67375 67.97609375 74.00375 68.99609375 74.34375 C69.12405783 79.84620545 69.12405783 79.84620545 68.40234375 82.65234375 C67.89182409 86.03453648 68.55300342 88.42338531 69.43359375 91.71875 C70.60109214 96.44765402 71.53519014 100.49188246 70.99609375 105.34375 C68.99609375 107.34375 68.99609375 107.34375 65.9921875 107.57421875 C64.81785156 107.56003906 63.64351562 107.54585938 62.43359375 107.53125 C60.66822266 107.52158203 60.66822266 107.52158203 58.8671875 107.51171875 C55.99609375 107.34375 55.99609375 107.34375 54.99609375 106.34375 C54.5997489 101.19126692 55.25317152 97.03238815 56.55859375 92.03125 C57.94477335 86.50587363 58.05030527 82.00565558 57.22265625 76.390625 C57.11050781 75.37742188 57.11050781 75.37742188 56.99609375 74.34375 C57.32609375 74.01375 57.65609375 73.68375 57.99609375 73.34375 C58.15395683 71.49200294 58.24716731 69.6346589 58.3125 67.77734375 C58.35439453 66.65263672 58.39628906 65.52792969 58.43945312 64.36914062 C58.47876953 63.18513672 58.51808594 62.00113281 58.55859375 60.78125 C58.62336914 58.99944336 58.62336914 58.99944336 58.68945312 57.18164062 C58.79592921 54.23580216 58.89794216 51.2898757 58.99609375 48.34375 C57.87460937 48.91996094 57.87460937 48.91996094 56.73046875 49.5078125 C55.745625 49.98992187 54.76078125 50.47203125 53.74609375 50.96875 C52.7715625 51.45601562 51.79703125 51.94328125 50.79296875 52.4453125 C47.99609375 53.34375 47.99609375 53.34375 45.77807617 52.58911133 C44.89599487 51.97265747 44.89599487 51.97265747 43.99609375 51.34375 C42.87654297 50.57611328 42.87654297 50.57611328 41.734375 49.79296875 C40.93386719 49.21160156 40.13335937 48.63023438 39.30859375 48.03125 C24.84297495 37.8969066 9.72445763 33.04728066 -8.04052734 35.64111328 C-20.64122972 37.88466034 -33.37817693 42.64088995 -42.2578125 52.15625 C-44.00390625 53.34375 -44.00390625 53.34375 -46.22265625 53.26953125 C-49.98060692 52.01864037 -53.41990227 50.33287367 -56.94140625 48.53125 C-57.63169922 48.18771484 -58.32199219 47.84417969 -59.03320312 47.49023438 C-63.2381527 45.36583805 -67.1378712 43.03605923 -71.00390625 40.34375 C-70.88867188 37.57466125 -70.88867188 37.57466125 -70.00390625 34.34375 C-67.38476563 32.37614441 -67.38476563 32.37614441 -63.84765625 30.64916992 C-63.20538086 30.32803223 -62.56310547 30.00689453 -61.90136719 29.67602539 C-59.7785738 28.62100303 -57.64196535 27.597901 -55.50390625 26.57421875 C-54.0270171 25.84730469 -52.55111652 25.11837895 -51.07617188 24.38752747 C-47.19289765 22.46971307 -43.29732328 20.57833563 -39.3984375 18.69250488 C-35.42632769 16.76618552 -31.4653442 14.81728783 -27.50390625 12.86914062 C-23.05787925 10.68295201 -18.61098313 8.49891338 -14.15429688 6.33451843 C-13.47850586 6.0056514 -12.80271484 5.67678436 -12.10644531 5.33795166 C-10.27935103 4.44932882 -8.45123413 3.56280945 -6.62304688 2.67643738 C-1.75851092 0.20123402 -1.75851092 0.20123402 0 0 Z " fill="#090909" transform="translate(174.00390625,56.65625)"/>
<path d="M0 0 C0.98701904 0.00555908 1.97403809 0.01111816 2.9909668 0.0168457 C4.01343506 0.02176025 5.03590332 0.0266748 6.08935547 0.03173828 C23.93280371 0.29700263 40.86351673 3.02048941 57.8659668 8.3293457 C58.77862305 8.56266602 59.6912793 8.79598633 60.6315918 9.03637695 C71.46146964 11.81556746 82.24359911 17.60012259 91.0690918 24.39575195 C92.81554252 25.50650948 92.81554252 25.50650948 94.79174805 25.1652832 C97.31853003 24.14695676 99.49862462 22.84435795 101.8034668 21.3918457 C105.09377776 19.32205194 108.24498819 17.73175647 111.8659668 16.3293457 C113.35194886 15.57173409 114.83095375 14.80031452 116.3034668 14.0168457 C137.65251946 3.34231937 161.69571877 0.22008742 185.3034668 0.0793457 C186.41286621 0.07 187.52226562 0.0606543 188.6652832 0.05102539 C189.69959473 0.05521484 190.73390625 0.0594043 191.79956055 0.0637207 C192.72824951 0.06597656 193.65693848 0.06823242 194.61376953 0.07055664 C196.8659668 0.3293457 196.8659668 0.3293457 198.8659668 2.3293457 C199.1315918 5.5168457 199.1315918 5.5168457 199.1159668 9.3293457 C199.12370117 11.2165332 199.12370117 11.2165332 199.1315918 13.1418457 C198.8659668 16.3293457 198.8659668 16.3293457 196.8659668 18.3293457 C194.35766602 18.5847168 194.35766602 18.5847168 191.1706543 18.6027832 C189.40226196 18.62924927 189.40226196 18.62924927 187.59814453 18.65625 C186.32527588 18.67212158 185.05240723 18.68799316 183.7409668 18.7043457 C157.48409436 19.34752324 131.87419746 23.79828645 108.8972168 37.0402832 C101.63613458 41.02639277 96.1268157 42.12027804 87.8659668 41.3293457 C87.8659668 40.6693457 87.8659668 40.0093457 87.8659668 39.3293457 C86.6903418 38.9890332 86.6903418 38.9890332 85.4909668 38.6418457 C82.53094937 37.57011526 79.95892477 36.39557192 77.1784668 34.9543457 C68.78385575 30.68186456 59.90863175 27.96453194 50.90893555 25.2590332 C48.95102827 24.66085357 47.00688656 24.01443006 45.0847168 23.30981445 C40.82445247 22.0120883 36.58475939 21.37070338 32.1784668 20.7668457 C30.77129395 20.57070679 30.77129395 20.57070679 29.33569336 20.37060547 C20.08854074 19.18269738 10.84339586 18.86075076 1.52734375 18.70800781 C0.42737061 18.68488525 -0.67260254 18.6617627 -1.8059082 18.63793945 C-3.27688965 18.61944946 -3.27688965 18.61944946 -4.77758789 18.60058594 C-7.1340332 18.3293457 -7.1340332 18.3293457 -9.1340332 16.3293457 C-9.3996582 13.1418457 -9.3996582 13.1418457 -9.3840332 9.3293457 C-9.38918945 8.0712207 -9.3943457 6.8130957 -9.3996582 5.5168457 C-8.87643899 -0.76178482 -5.2029764 0.05401972 0 0 Z " fill="#0C0C0C" transform="translate(80.134033203125,251.670654296875)"/>
<path d="M0 0 C1.98814482 2.98221724 3.55399291 5.99898388 5.1875 9.1875 C7.42397142 13.45327496 9.51406481 16.75121086 13 20.0625 C15.19760174 22.4131931 15.94106126 23.54144368 16.35546875 26.765625 C15.62528586 40.01080308 9.86513637 52.14667249 0 61 C-6.89728736 66.98974955 -11.73879121 69.73506239 -20.94140625 69.37890625 C-29.53253962 68.31461514 -36.26890748 64.42215981 -42 58 C-49.70233878 47.87197579 -54.25042756 36.77180562 -54 24 C-52.741875 23.92523438 -51.48375 23.85046875 -50.1875 23.7734375 C-31.87668716 22.45935894 -16.07746406 18.18126667 -3.375 4.0625 C-2.2389203 2.71761514 -1.10958055 1.36682967 0 0 Z " fill="#FAFAFA" transform="translate(194,119)"/>
<path d="M0 0 C0.33 0 0.66 0 1 0 C1 4.66666667 1 9.33333333 1 14 C1.99 14.99 1.99 14.99 3 16 C3.99 16.99 3.99 16.99 5 18 C2.4315535 29.81485389 -5.59430494 40.28600869 -15.25 47.375 C-23.0320488 52.19692353 -32.91785036 54.28287186 -42 53 C-48.7110937 51.25739762 -53.79654293 47.98581368 -59.08984375 43.5859375 C-61.11804906 41.84566214 -61.11804906 41.84566214 -64 40 C-64.6875 37.375 -64.6875 37.375 -65 35 C-64.34 35 -63.68 35 -63 35 C-63.5259375 34.13375 -63.5259375 34.13375 -64.0625 33.25 C-65.14917407 30.64198224 -64.93065133 29.60582371 -64 27 C-64.99 26.34 -65.98 25.68 -67 25 C-66.67 23.35 -66.34 21.7 -66 20 C-64.74600727 21.8809891 -63.51981707 23.78114265 -62.3359375 25.70703125 C-57.11456861 33.97593218 -51.80374726 40.43114059 -42.2578125 43.51953125 C-34.98696955 45.06678676 -28.96006076 45.02199831 -22.5 41.125 C-20.99687689 40.08784506 -19.49660478 39.04653885 -18 38 C-17.2884375 37.68804687 -16.576875 37.37609375 -15.84375 37.0546875 C-13.48773845 35.70696903 -13.07355831 34.45835832 -12 32 C-11.05499779 30.63649681 -10.09566646 29.28285377 -9.125 27.9375 C-3.37076147 19.34824639 -1.34404246 10.13337278 0 0 Z " fill="#131313" transform="translate(210,143)"/>
<path d="M0 0 C1.21608612 0.99055742 2.42789878 1.98658098 3.625 3 C0.53690305 4.76462683 -0.60812136 5 -4.375 5 C-7.49029909 3.69780498 -10.26753609 1.85069 -13.125 0.0625 C-26.44618067 -7.96536694 -42.09006476 -10.36170507 -57.37109375 -7.3125 C-64.82096236 -5.35415557 -71.04007329 -2.33930877 -77.375 2 C-78.01695312 2.42023438 -78.65890625 2.84046875 -79.3203125 3.2734375 C-80.68227492 4.16663146 -82.03080347 5.08028658 -83.375 6 C-83.705 4.35 -84.035 2.7 -84.375 1 C-86.355 1.99 -86.355 1.99 -88.375 3 C-80.57384884 -7.92161163 -66.83888812 -13.15753125 -54.0390625 -15.52734375 C-33.42549059 -18.18645057 -16.33796961 -12.58534222 0 0 Z " fill="#ECECEC" transform="translate(218.375,107)"/>
<path d="M0 0 C0.33 0 0.66 0 1 0 C1 4.66666667 1 9.33333333 1 14 C1.66 14.66 2.32 15.32 3 16 C3.66 16.66 4.32 17.32 5 18 C3.59441952 24.46567022 0.54628896 29.45752952 -3 35 C-3.33 33.68 -3.66 32.36 -4 31 C-7.49529294 32.11213866 -10.74469192 33.31573191 -14 35 C-13.41992188 34.27296875 -13.41992188 34.27296875 -12.828125 33.53125 C-4.74034769 23.1212396 -2.0818501 12.95805762 0 0 Z " fill="#1C1C1C" transform="translate(210,143)"/>
<path d="M0 0 C5.27386835 1.42536982 9.70796545 3.96436676 14.4140625 6.66015625 C16.66383928 7.82582609 18.52812977 8.52999651 21 9 C20.67 9.66 20.34 10.32 20 11 C19.34 10.67 18.68 10.34 18 10 C19.25541557 12.51083114 20.50063488 12.87125446 23 14 C21.75 15.5625 21.75 15.5625 20 17 C16.63479593 16.55949045 14.21096883 15.0421106 11.375 13.25 C6.39195543 10.18008861 1.27187458 7.5349865 -4 5 C-2.68 4.67 -1.36 4.34 0 4 C-0.33 3.01 -0.66 2.02 -1 1 C-0.67 0.67 -0.34 0.34 0 0 Z " fill="#ECECEC" transform="translate(156,261)"/>
<path d="M0 0 C-1.56911884 6.43338723 -5.01317875 11.15101541 -10.625 14.625 C-13 15 -13 15 -15.1484375 13.5234375 C-15.75945312 13.02070313 -16.37046875 12.51796875 -17 12 C-6.89980354 -2.29993451 -6.89980354 -2.29993451 0 0 Z M-19 13 C-17 14 -17 14 -17 14 Z " fill="#0E0E0E" transform="translate(207,174)"/>
<path d="M0 0 C-0.53625 0.639375 -1.0725 1.27875 -1.625 1.9375 C-3.5987205 6.33351383 -2.3552516 9.52474471 -1 14 C-4.91211733 12.84414715 -7.8745041 11.64465038 -11 9 C-11 6.25 -11 6.25 -10 3 C-7.01778967 0.77808945 -3.55321814 -1.77660907 0 0 Z " fill="#1E1E1E" transform="translate(114,88)"/>
<path d="M0 0 C1.91497143 2.87245714 3.77382745 5.77361727 5.625 8.6875 C6.25664062 9.68136719 6.88828125 10.67523438 7.5390625 11.69921875 C8.02117187 12.45847656 8.50328125 13.21773437 9 14 C8.01 14.495 8.01 14.495 7 15 C6.34227572 18.02934491 6.34227572 18.02934491 6 21 C4.68 20.67 3.36 20.34 2 20 C1.67 18.35 1.34 16.7 1 15 C1.66 15 2.32 15 3 15 C2.649375 14.4225 2.29875 13.845 1.9375 13.25 C0.85082593 10.64198224 1.06934867 9.60582371 2 7 C1.01 6.34 0.02 5.68 -1 5 C-0.67 3.35 -0.34 1.7 0 0 Z " fill="#191919" transform="translate(144,163)"/>
<path d="M0 0 C1.65 0.33 3.3 0.66 5 1 C5 2.66666667 5 4.33333333 5 6 C5.66 6.66 6.32 7.32 7 8 C6.01 8.99 5.02 9.98 4 11 C0.77195053 8.18847304 -0.6588327 6.32145242 -1 2 C-0.67 1.34 -0.34 0.68 0 0 Z " fill="#090909" transform="translate(141,168)"/>
<path d="M0 0 C1.98 0 3.96 0 6 0 C5.67 0.66 5.34 1.32 5 2 C4.34 1.67 3.68 1.34 3 1 C4.25541557 3.51083114 5.50063488 3.87125446 8 5 C6.75 6.5625 6.75 6.5625 5 8 C2.34305562 7.83394098 1.23616321 7.21086001 -0.75 5.4375 C-1.1625 4.963125 -1.575 4.48875 -2 4 C-1.34 2.68 -0.68 1.36 0 0 Z " fill="#E2E2E2" transform="translate(171,270)"/>
<path d="M0 0 C0.99 0.33 1.98 0.66 3 1 C3 1.66 3 2.32 3 3 C3.66 3 4.32 3 5 3 C4.34 4.32 3.68 5.64 3 7 C1.02 6.34 -0.96 5.68 -3 5 C-2.01 3.35 -1.02 1.7 0 0 Z M-5 5 C-3 6 -3 6 -3 6 Z " fill="#080808" transform="translate(193,182)"/>
<path d="M0 0 C0.66 0.33 1.32 0.66 2 1 C0.77937479 2.44475986 -0.45192126 3.88050764 -1.6875 5.3125 C-2.37199219 6.11300781 -3.05648437 6.91351563 -3.76171875 7.73828125 C-6.01677668 10.01695236 -8.19152343 11.48017643 -11 13 C-9.63422544 8.71506993 -7.79318655 6.56854295 -4.375 3.6875 C-3.55773437 2.99011719 -2.74046875 2.29273437 -1.8984375 1.57421875 C-0.95871094 0.79498047 -0.95871094 0.79498047 0 0 Z " fill="#2F2F2F" transform="translate(142,107)"/>
<path d="M0 0 C0.66 0.33 1.32 0.66 2 1 C1.67 1.99 1.34 2.98 1 4 C0.01 4 -0.98 4 -2 4 C-2 4.66 -2 5.32 -2 6 C-1.34 6.33 -0.68 6.66 0 7 C-0.99 7 -1.98 7 -3 7 C-3.33 7.99 -3.66 8.98 -4 10 C-4.99 8.68 -5.98 7.36 -7 6 C-4.69 4.02 -2.38 2.04 0 0 Z " fill="#1D1D1D" transform="translate(114,200)"/>
<path d="M0 0 C-5.68959411 3.0636276 -10.51090534 4.25956379 -17 4 C-12.0251208 0.68341387 -5.96431647 -0.38479461 0 0 Z " fill="#494949" transform="translate(144,191)"/>
<path d="M0 0 C2 3.75 2 3.75 2 6 C0.35 6 -1.3 6 -3 6 C-3.33 6.99 -3.66 7.98 -4 9 C-4.66 7.68 -5.32 6.36 -6 5 C-4.68 5 -3.36 5 -2 5 C-1.34 3.35 -0.68 1.7 0 0 Z " fill="#161616" transform="translate(141,155)"/>
<path d="M0 0 C0.66 0 1.32 0 2 0 C2 0.66 2 1.32 2 2 C3.65 1.34 5.3 0.68 7 0 C7 1.32 7 2.64 7 4 C4.625 4.625 4.625 4.625 2 5 C1.34 4.34 0.68 3.68 0 3 C0 2.01 0 1.02 0 0 Z " fill="#111111" transform="translate(218,105)"/>
<path d="M0 0 C0.7425 0.0825 1.485 0.165 2.25 0.25 C1.59 1.57 0.93 2.89 0.25 4.25 C-2.08333333 4.25 -4.41666667 4.25 -6.75 4.25 C-3.42692308 0.31153846 -3.42692308 0.31153846 0 0 Z " fill="#E2E2E2" transform="translate(136.75,104.75)"/>
<path d="M0 0 C2.1875 -0.3125 2.1875 -0.3125 5 0 C7.8125 2.5 7.8125 2.5 10 5 C6.11817249 5 4.08207086 4.00478008 1.25 1.375 C0.8375 0.92125 0.425 0.4675 0 0 Z " fill="#0F0F0F" transform="translate(202,107)"/>
<path d="M0 0 C1.98 0.495 1.98 0.495 4 1 C3.34 2.65 2.68 4.3 2 6 C1.01 6 0.02 6 -1 6 C-0.67 4.02 -0.34 2.04 0 0 Z " fill="#242424" transform="translate(104,91)"/>
<path d="M0 0 C0.99 0.33 1.98 0.66 3 1 C0.14723863 3.93200474 -2.65079784 6.64315404 -6 9 C-4.47291037 5.56404834 -2.40072955 2.88087546 0 0 Z " fill="#383838" transform="translate(105,207)"/>
<path d="M0 0 C0 3 0 3 -1 6 C-3 6 -5 6 -7 6 C-4.69 4.02 -2.38 2.04 0 0 Z " fill="#343434" transform="translate(197,200)"/>
<path d="M0 0 C2.88575819 0.39803561 3.82189513 0.79009069 5.75 3.0625 C6.1625 3.701875 6.575 4.34125 7 5 C6.01 5.495 6.01 5.495 5 6 C4.01 5.34 3.02 4.68 2 4 C2 3.34 2 2.68 2 2 C1.34 2 0.68 2 0 2 C0 1.34 0 0.68 0 0 Z " fill="#EFEFEF" transform="translate(202,138)"/>
<path d="M0 0 C0 2 0 2 -2 4.125 C-2.66 4.74375 -3.32 5.3625 -4 6 C-4.66 5.67 -5.32 5.34 -6 5 C-6 4.01 -6 3.02 -6 2 C-2.25 0 -2.25 0 0 0 Z " fill="#2C2C2C" transform="translate(153,102)"/>
<path d="M0 0 C1.98 0.99 3.96 1.98 6 3 C5.67 3.66 5.34 4.32 5 5 C2.9375 5.625 2.9375 5.625 1 6 C0.4465236 3.92446352 0 2.15634036 0 0 Z " fill="#161616" transform="translate(240,89)"/>
<path d="M0 0 C0.33 1.32 0.66 2.64 1 4 C-0.98 4.99 -0.98 4.99 -3 6 C-3.33 4.35 -3.66 2.7 -4 1 C-2.68 0.67 -1.36 0.34 0 0 Z " fill="#212121" transform="translate(177,218)"/>
<path d="M0 0 C0.33 0 0.66 0 1 0 C1 1.98 1 3.96 1 6 C-0.32 6.33 -1.64 6.66 -3 7 C-1.125 1.125 -1.125 1.125 0 0 Z " fill="#323232" transform="translate(98,216)"/>
<path d="M0 0 C1.485 0.99 1.485 0.99 3 2 C3 2.66 3 3.32 3 4 C3.66 4 4.32 4 5 4 C4.67 4.99 4.34 5.98 4 7 C2.35 5.35 0.7 3.7 -1 2 C-0.67 1.34 -0.34 0.68 0 0 Z " fill="#EAEAEA" transform="translate(247,207)"/>
</svg>
